<svg width="51" height="14" viewBox="0 0 51 14" fill="none" xmlns="http://www.w3.org/2000/svg">
<path d="M9.24173 1.35342C8.86939 1.00345 8.42322 0.735975 7.93394 0.569453C7.44468 0.402931 6.92397 0.341327 6.40778 0.388863H2.65421C2.52302 0.391338 2.39686 0.438147 2.29749 0.521208C2.19811 0.604287 2.13176 0.718395 2.10994 0.843842L0.439598 10.453C0.434286 10.499 0.439091 10.5456 0.453674 10.5896C0.468256 10.6337 0.492298 10.6741 0.524222 10.7085C0.556128 10.7429 0.595202 10.7703 0.638838 10.7891C0.682473 10.8078 0.729711 10.8173 0.777419 10.8169H2.65421C2.76647 10.8122 2.87475 10.7751 2.96504 10.7103C3.05535 10.6453 3.12357 10.5558 3.16094 10.453L3.57383 7.83227C3.58778 7.70688 3.64922 7.59077 3.74631 7.50688C3.84339 7.4228 3.96918 7.37657 4.09933 7.3773H5.31924C5.85886 7.43772 6.40553 7.39004 6.92525 7.2368C7.44499 7.08356 7.92666 6.82841 8.34032 6.487C8.75401 6.14558 9.09082 5.72536 9.32984 5.25237C9.56885 4.77937 9.70496 4.26379 9.72969 3.73747C9.83543 3.32981 9.8465 2.90455 9.7621 2.49227C9.67772 2.07998 9.49999 1.69099 9.24173 1.35342ZM6.85821 3.88306C6.65176 5.2298 5.58199 5.2298 4.56853 5.2298H3.98672L4.38085 2.70015C4.39369 2.62608 4.43239 2.55853 4.49047 2.50883C4.54856 2.45914 4.6225 2.4303 4.6999 2.42717H4.96265C5.65706 2.42717 6.33271 2.42717 6.65176 2.80935C6.76859 2.96108 6.84796 3.13679 6.88375 3.32289C6.91954 3.50907 6.91079 3.70071 6.85821 3.88306Z" fill="#253B80"/>
<path d="M18.0063 3.8275H16.1295C16.0531 3.83151 15.9797 3.85808 15.9195 3.90376C15.859 3.94926 15.8144 4.0115 15.7917 4.08229V4.61007L15.6603 4.40988C15.3761 4.13271 15.031 3.92141 14.6508 3.7922C14.2703 3.66298 13.8648 3.61894 13.4644 3.66371C12.4377 3.68683 11.4537 4.06719 10.6922 4.73546C9.93078 5.40373 9.44255 6.31515 9.3167 7.30354C9.22177 7.78891 9.2346 8.2883 9.35434 8.76839C9.47408 9.24848 9.69798 9.69837 10.0111 10.088C10.3047 10.4032 10.6688 10.6489 11.0753 10.8067C11.482 10.9645 11.9204 11.0298 12.3571 10.998C12.8329 11.0029 13.3049 10.9135 13.7439 10.7352C14.1827 10.5566 14.5794 10.2931 14.9096 9.96062V10.4884C14.9041 10.5725 14.9325 10.6553 14.9882 10.7195C15.0441 10.7839 15.1235 10.8251 15.2099 10.8342H16.8802C17.0106 10.84 17.1386 10.7985 17.2392 10.7177C17.3398 10.6371 17.4059 10.5228 17.4245 10.3974L18.4192 4.19149C18.4402 4.13689 18.4439 4.07756 18.4299 4.02078C18.4158 3.96418 18.3844 3.91286 18.34 3.87373C18.2955 3.8346 18.2399 3.80912 18.1804 3.80093C18.1209 3.79274 18.0601 3.80203 18.0063 3.8275ZM13.3143 9.08706C13.0848 9.09943 12.8554 9.0634 12.6417 8.98186C12.4277 8.90015 12.2348 8.77458 12.0756 8.61388C11.9384 8.42916 11.8412 8.2195 11.7896 7.99747C11.738 7.77544 11.7331 7.54559 11.7753 7.32174C11.8346 6.82454 12.079 6.36538 12.4624 6.03033C12.846 5.69528 13.3423 5.50747 13.8586 5.50183C14.0911 5.49163 14.3231 5.53204 14.5376 5.6203C14.7519 5.70839 14.9432 5.84215 15.0973 6.0114C15.2508 6.18411 15.3596 6.38958 15.4152 6.61106C15.4707 6.83255 15.4711 7.06368 15.4163 7.28534C15.3602 7.78564 15.1138 8.24753 14.7249 8.58076C14.336 8.91398 13.833 9.09452 13.3143 9.08706Z" fill="#253B80"/>
<path d="M27.8779 3.82755H26.0012C25.9116 3.82646 25.8231 3.84775 25.7442 3.88906C25.6654 3.93056 25.5988 3.99079 25.5507 4.06414L22.9795 7.70397L21.891 4.15513C21.8557 4.04612 21.7861 3.95058 21.6917 3.88215C21.5975 3.81354 21.4834 3.77532 21.3655 3.77295H19.4887C19.4371 3.77277 19.3861 3.7846 19.3401 3.80771C19.2941 3.83082 19.2547 3.86449 19.2252 3.90562C19.1956 3.94693 19.1768 3.99444 19.1704 4.0443C19.164 4.09398 19.1702 4.14458 19.1884 4.19153L21.2341 10.0881L19.3573 12.7451C19.3226 12.7917 19.3018 12.8467 19.2973 12.904C19.2928 12.9612 19.305 13.0187 19.3322 13.0696C19.3594 13.1206 19.4009 13.1633 19.4517 13.1928C19.5026 13.2223 19.561 13.2374 19.6201 13.2365H21.4969C21.5851 13.2414 21.6731 13.2238 21.7521 13.1855C21.8311 13.1471 21.8985 13.0895 21.9473 13.0181L28.1407 4.26433C28.1621 4.21938 28.1718 4.16987 28.1692 4.12037C28.1666 4.07087 28.152 4.02283 28.1262 3.97988C28.1003 3.93711 28.0645 3.90089 28.0213 3.8745C27.978 3.84793 27.929 3.83192 27.8779 3.82755Z" fill="#253B80"/>
<path d="M36.8875 1.35272C36.5144 1.00376 36.0681 0.736938 35.579 0.570489C35.0899 0.404021 34.5697 0.341835 34.0536 0.38817H30.1686C30.0404 0.387824 29.9169 0.434559 29.8229 0.518985C29.7289 0.60341 29.6713 0.719231 29.6619 0.843149L28.0666 10.4522C28.0612 10.4983 28.0661 10.5449 28.0807 10.5889C28.0951 10.6329 28.1194 10.6735 28.1513 10.7079C28.1832 10.7421 28.2222 10.7696 28.2657 10.7884C28.3095 10.8071 28.3566 10.8166 28.4044 10.8162H30.3938C30.4839 10.8124 30.5695 10.7771 30.635 10.7168C30.7005 10.6568 30.7414 10.5758 30.7504 10.4886L31.2008 7.74055C31.2185 7.61661 31.2812 7.50287 31.3775 7.41952C31.4735 7.33617 31.5972 7.28885 31.7263 7.28557H32.965C33.5037 7.34072 34.0481 7.28903 34.5656 7.13379C35.083 6.97855 35.5625 6.72304 35.9748 6.38271C36.3873 6.04221 36.7242 5.62417 36.965 5.15372C37.2056 4.68328 37.3453 4.17024 37.3755 3.64574C37.4588 3.25155 37.4584 2.84484 37.3745 2.45061C37.2906 2.05638 37.1249 1.68284 36.8875 1.35272ZM34.4852 3.93693C34.2975 5.28367 33.2278 5.28367 32.1955 5.28367H31.6137L32.0266 2.75406C32.0289 2.71579 32.0392 2.67835 32.0565 2.6439C32.0737 2.60947 32.098 2.57867 32.1276 2.5533C32.1573 2.52793 32.1918 2.5085 32.2291 2.4961C32.2667 2.48371 32.3061 2.4786 32.3457 2.48107H32.6272C33.3216 2.48107 33.9785 2.48107 34.3163 2.86325C34.4184 3.01132 34.4864 3.17912 34.5154 3.35492C34.5447 3.53091 34.5344 3.71071 34.4852 3.88233V3.93693Z" fill="#179BD7"/>
<path d="M45.6331 3.82837H43.7563C43.6782 3.82637 43.602 3.85076 43.5404 3.89716C43.4789 3.94375 43.4357 4.00927 43.4184 4.08316V4.61093L43.2871 4.41074C43.0074 4.13266 42.6659 3.92064 42.2882 3.79125C41.9106 3.66185 41.5075 3.61853 41.11 3.66458C40.0832 3.68769 39.0992 4.06805 38.3378 4.73614C37.5764 5.40442 37.088 6.31601 36.9623 7.30441C36.857 7.78941 36.8647 8.29098 36.985 8.77271C37.1051 9.25445 37.3345 9.70396 37.6567 10.0889C37.9455 10.4046 38.3061 10.6512 38.71 10.8092C39.1137 10.967 39.5498 11.032 39.9839 10.9988C40.4625 11.003 40.937 10.9133 41.3788 10.7349C41.8207 10.5568 42.2209 10.2936 42.5551 9.96148V10.4893C42.5497 10.5328 42.554 10.577 42.5677 10.6188C42.5812 10.6607 42.6039 10.6993 42.6341 10.7319C42.6644 10.7646 42.7013 10.7906 42.7426 10.8085C42.7841 10.8263 42.8289 10.8352 42.8742 10.835H44.5445C44.6718 10.8363 44.7953 10.7926 44.8919 10.7124C44.9886 10.6319 45.0518 10.5204 45.07 10.3983L45.9896 4.19235C45.999 4.14413 45.9964 4.09444 45.9821 4.04749C45.9679 4.00035 45.9422 3.9574 45.9074 3.92173C45.8725 3.88624 45.8295 3.85931 45.7819 3.84293C45.734 3.82673 45.6832 3.82164 45.6331 3.82837ZM40.9599 9.08792C40.7273 9.10157 40.4948 9.06645 40.2776 8.98473C40.0607 8.90302 39.8644 8.7769 39.7024 8.61475C39.5645 8.43057 39.4682 8.22037 39.4196 7.99779C39.3712 7.77504 39.3715 7.545 39.4209 7.32261C39.4719 6.82541 39.7112 6.36406 40.0924 6.02792C40.4738 5.69178 40.97 5.50469 41.4854 5.50269C41.7243 5.48231 41.9647 5.51834 42.186 5.60788C42.4074 5.69742 42.603 5.83774 42.7561 6.01663C42.9093 6.19553 43.0155 6.40792 43.0654 6.63541C43.1153 6.86271 43.1076 7.09858 43.0431 7.32261C42.9868 7.81635 42.7415 8.27169 42.3558 8.59855C41.9701 8.9254 41.4718 9.09993 40.9599 9.08792Z" fill="#179BD7"/>
<path d="M49.9308 0.333968H48.054C47.9772 0.328744 47.9014 0.352258 47.8421 0.399667C47.7826 0.447076 47.7443 0.514759 47.7349 0.588756L46.2335 10.4527C46.2252 10.4977 46.2273 10.5439 46.2395 10.5879C46.2517 10.632 46.2738 10.6729 46.3044 10.7077C46.3348 10.7425 46.3729 10.7703 46.4159 10.7892C46.4587 10.808 46.5054 10.8174 46.5525 10.8167H48.1478C48.2751 10.818 48.3985 10.7743 48.4952 10.694C48.5919 10.6136 48.6551 10.502 48.6733 10.3799L50.2498 0.679752C50.2551 0.636184 50.2507 0.591994 50.2372 0.550155C50.2235 0.508315 50.2008 0.469751 50.1708 0.437047C50.1406 0.404343 50.1036 0.378247 50.0621 0.360484C50.0208 0.342704 49.976 0.333676 49.9308 0.333968Z" fill="#179BD7"/>
</svg>
